<svg width="22" height="22" viewBox="0 0 22 22" fill="none" xmlns="http://www.w3.org/2000/svg">
<path d="M10.9997 19.2501C10.4084 18.7257 9.7402 18.1803 9.03345 17.6001H9.02428C6.53553 15.5651 3.71495 13.2624 2.4692 10.5032C2.05992 9.6248 1.84302 8.66909 1.83302 7.70005C1.83028 6.37042 2.36357 5.09579 3.31235 4.16426C4.26114 3.23272 5.54533 2.72292 6.8747 2.75005C7.95694 2.75176 9.01588 3.06455 9.92536 3.65114C10.325 3.91053 10.6866 4.22429 10.9997 4.58339C11.3146 4.2257 11.6762 3.91212 12.0749 3.65114C12.984 3.06443 14.0427 2.75163 15.1247 2.75005C16.4541 2.72292 17.7383 3.23272 18.687 4.16426C19.6358 5.09579 20.1691 6.37042 20.1664 7.70005C20.157 8.67064 19.9401 9.62798 19.5302 10.5078C18.2844 13.267 15.4648 15.5687 12.976 17.6001L12.9669 17.6074C12.2592 18.184 11.5919 18.7294 11.0006 19.2574L10.9997 19.2501ZM6.8747 4.58339C6.02083 4.5727 5.19726 4.89949 4.58303 5.49272C3.99122 6.07404 3.66045 6.87051 3.66628 7.70005C3.67674 8.40635 3.8367 9.10242 4.1357 9.74239C4.72375 10.9329 5.51721 12.0103 6.47961 12.9251C7.38803 13.8417 8.43303 14.7291 9.33686 15.4752C9.58711 15.6815 9.84195 15.8896 10.0968 16.0976L10.2572 16.2287C10.5019 16.4286 10.7549 16.6357 10.9997 16.8392L11.0116 16.8282L11.0171 16.8236H11.0226L11.0309 16.8172H11.0354H11.04L11.0565 16.8035L11.0941 16.7732L11.1005 16.7677L11.1106 16.7604H11.1161L11.1244 16.7531L11.733 16.2535L11.8925 16.1224C12.1501 15.9125 12.4049 15.7044 12.6552 15.4981C13.559 14.752 14.6049 13.8656 15.5134 12.9443C16.4759 12.03 17.2694 10.9529 17.8573 9.76255C18.1617 9.11704 18.3239 8.41368 18.3331 7.70005C18.3368 6.87307 18.0063 6.07966 17.4164 5.50005C16.8033 4.90415 15.9796 4.57466 15.1247 4.58339C14.0815 4.57452 13.0841 5.01181 12.3839 5.78514L10.9997 7.38014L9.61553 5.78514C8.91525 5.01181 7.91793 4.57452 6.8747 4.58339Z" fill="#8C98B7"/>
</svg>
