<svg width="22" height="22" viewBox="0 0 22 22" fill="none" xmlns="http://www.w3.org/2000/svg">
<g clip-path="url(#clip0_4112_4625)">
<path d="M17.4189 15.5811C15.9063 15.5811 14.6758 16.8116 14.6758 18.3242C14.6758 19.8367 15.9064 21.0673 17.4189 21.0673C18.9315 21.0673 20.1621 19.8367 20.1621 18.3242C20.1621 16.8116 18.9315 15.5811 17.4189 15.5811ZM17.4189 19.4215C16.8138 19.4215 16.3217 18.9293 16.3217 18.3242C16.3217 17.7191 16.8138 17.2269 17.4189 17.2269C18.0241 17.2269 18.5162 17.7191 18.5162 18.3242C18.5162 18.9293 18.0241 19.4215 17.4189 19.4215Z" fill="#8C98B7"/>
<path d="M21.8251 4.97901C21.6693 4.77959 21.4304 4.66327 21.1772 4.66327H5.0798L4.33914 1.56435C4.25054 1.19404 3.91942 0.932617 3.53867 0.932617H0.822942C0.368416 0.932574 0 1.30099 0 1.75552C0 2.21004 0.368416 2.57846 0.822942 2.57846H2.88911L5.56367 13.7694C5.65227 14.14 5.98339 14.4012 6.36414 14.4012H19.1747C19.553 14.4012 19.8827 14.1433 19.9735 13.7763L21.976 5.68396C22.0366 5.43822 21.9809 5.17843 21.8251 4.97901ZM18.5309 12.7553H7.0137L5.47313 6.30916H20.1257L18.5309 12.7553Z" fill="#8C98B7"/>
<path d="M7.46287 15.5811C5.95027 15.5811 4.71973 16.8116 4.71973 18.3242C4.71973 19.8367 5.95032 21.0673 7.46287 21.0673C8.97542 21.0673 10.206 19.8367 10.206 18.3242C10.206 16.8116 8.97542 15.5811 7.46287 15.5811ZM7.46287 19.4215C6.85773 19.4215 6.36561 18.9293 6.36561 18.3242C6.36561 17.7191 6.85773 17.2269 7.46287 17.2269C8.068 17.2269 8.56012 17.7191 8.56012 18.3242C8.56012 18.9293 8.068 19.4215 7.46287 19.4215Z" fill="#8C98B7"/>
</g>
<defs>
<clipPath id="clip0_4112_4625">
<rect width="22" height="22" fill="white"/>
</clipPath>
</defs>
</svg>
