<svg width="20" height="20" viewBox="0 0 20 20" fill="none" xmlns="http://www.w3.org/2000/svg">
<path d="M9.99977 19.1666C8.61382 19.1705 7.24539 18.8569 5.99943 18.2499C5.54344 18.0281 5.10653 17.769 4.69318 17.4753L4.5676 17.3837C3.43077 16.5446 2.50132 15.4561 1.8506 14.2019C1.17752 12.9038 0.828431 11.4621 0.833053 9.99992C0.833053 4.93731 4.93716 0.833252 9.99977 0.833252C15.0624 0.833252 19.1665 4.93731 19.1665 9.99992C19.1711 11.4614 18.8223 12.9024 18.1499 14.2001C17.5 15.4536 16.5719 16.5416 15.4365 17.3809C15.0082 17.6944 14.5537 17.9704 14.078 18.2059L14.0047 18.2426C12.7579 18.8528 11.3878 19.1689 9.99977 19.1666ZM9.99977 14.5832C8.62612 14.5806 7.36679 15.3478 6.73918 16.5697C8.7938 17.5873 11.2057 17.5873 13.2604 16.5697V16.5651C12.632 15.3445 11.3726 14.5791 9.99977 14.5832ZM9.99977 12.7499C11.9854 12.7525 13.8162 13.8225 14.793 15.5513L14.8068 15.5393L14.8196 15.5283L14.804 15.5421L14.7949 15.5494C17.1131 13.5466 17.942 10.3137 16.8735 7.44252C15.805 4.57131 13.0643 2.66687 10.0007 2.66687C6.9371 2.66687 4.19634 4.57131 3.12784 7.44252C2.05933 10.3137 2.88827 13.5466 5.20652 15.5494C6.18392 13.8215 8.0146 12.7523 9.99977 12.7499ZM9.99977 11.8333C7.97472 11.8333 6.3331 10.1916 6.3331 8.16658C6.3331 6.14154 7.97472 4.49992 9.99977 4.49992C12.0248 4.49992 13.6664 6.14154 13.6664 8.16658C13.6664 9.13905 13.2801 10.0717 12.5925 10.7593C11.9049 11.4469 10.9722 11.8333 9.99977 11.8333ZM9.99977 6.33325C8.98724 6.33325 8.16643 7.15406 8.16643 8.16658C8.16643 9.17911 8.98724 9.99992 9.99977 9.99992C11.0123 9.99992 11.8331 9.17911 11.8331 8.16658C11.8331 7.15406 11.0123 6.33325 9.99977 6.33325Z" fill="#8C98B7"/>
</svg>
